<?xml version="1.0" encoding="UTF-8" standalone="no"?>
<!-- Created with Inkscape (http://www.inkscape.org/) -->

<svg
   width="120"
   height="120"
   viewBox="0 0 120 120"
   version="1.1"
   id="svg5"
   inkscape:version="1.1.2 (0a00cf5339, 2022-02-04, custom)"
   sodipodi:docname="kindkapibari_icon.svg"
   xmlns:inkscape="http://www.inkscape.org/namespaces/inkscape"
   xmlns:sodipodi="http://sodipodi.sourceforge.net/DTD/sodipodi-0.dtd"
   xmlns="http://www.w3.org/2000/svg"
   xmlns:svg="http://www.w3.org/2000/svg">
  <sodipodi:namedview
     id="namedview7"
     pagecolor="#ffffff"
     bordercolor="#000000"
     borderopacity="1"
     inkscape:pageshadow="0"
     inkscape:pageopacity="1"
     inkscape:pagecheckerboard="1"
     inkscape:document-units="px"
     showgrid="false"
     inkscape:zoom="5.25"
     inkscape:cx="63.428571"
     inkscape:cy="56.761905"
     inkscape:window-width="1908"
     inkscape:window-height="1018"
     inkscape:window-x="6"
     inkscape:window-y="32"
     inkscape:window-maximized="1"
     inkscape:current-layer="layer1"
     borderlayer="true" />
  <defs
     id="defs2">
    <inkscape:path-effect
       effect="bspline"
       id="path-effect3920"
       is_visible="true"
       lpeversion="1"
       weight="33.333333"
       steps="2"
       helper_size="0"
       apply_no_weight="true"
       apply_with_weight="true"
       only_selected="false" />
  </defs>
  <g
     inkscape:groupmode="layer"
     id="layer2"
     inkscape:label="bg">
    <path
       style="fill:none;stroke:#000000;stroke-width:1px;stroke-linecap:butt;stroke-linejoin:miter;stroke-opacity:1"
       d="m 1.0839941,90.70703 c 2.8774617,-2.712515 6.5511191,-5.78622 13.0533559,-8.629759 6.502237,-2.843538 15.83211,-5.4567 21.18037,-6.978878 5.34826,-1.522179 6.714711,-1.953297 8.104655,-6.076563 1.389944,-4.123267 2.804064,-11.939352 9.210029,-16.212356 6.405966,-4.273005 17.802219,-5.001891 24.464823,-4.735061 6.662604,0.26683 8.591029,1.528523 9.693265,3.224186 1.102236,1.695662 1.379249,3.82483 0.806817,6.299464 -0.572433,2.474634 -1.993915,5.295293 -3.681646,7.529677 -1.687731,2.234384 -3.641894,3.882845 -5.397009,9.197748 -1.755114,5.314903 -3.310847,14.294975 -4.048371,22.591794 -0.737523,8.296818 -0.656959,15.909698 -0.900147,20.452318 -0.243189,4.54262 -0.809893,6.01524 -13.667939,7.88848 -12.858046,1.87324 -38.007523,4.14759 -51.4790035,5.0271 -13.4714805,0.87951 -15.264677,0.36374 -16.7714573,-2.30345 -1.5067803,-2.66718 -2.7261672,-7.48641 -2.2796872,-12.82194 0.44648,-5.33553 2.5592736,-11.1864 4.6563429,-15.287754 2.0970694,-4.10136 4.1781406,-6.452492 7.0556022,-9.165006 z"
       id="path3918"
       inkscape:path-effect="#path-effect3920"
       inkscape:original-d="M 0.28770229,91.068301 C 3.9623599,87.995596 7.6360175,84.921891 11.308675,81.847185 c 9.331245,-2.612265 18.661118,-5.225426 27.990176,-7.83964 1.367506,-0.430135 2.733957,-0.861252 4.099435,-1.293378 1.415176,-7.815397 2.829296,-15.631482 4.242444,-23.448722 11.397708,-0.727916 22.793961,-1.456803 34.189441,-2.186704 1.929502,1.262744 3.857926,2.524438 5.785389,3.785156 0.278024,2.130253 0.555036,4.259421 0.831055,6.387632 -1.42054,2.821772 -2.842022,5.642431 -4.264533,8.462146 -1.953241,1.649527 -3.907404,3.297988 -5.862607,4.945481 -1.554795,8.981432 -3.110529,17.961504 -4.667294,26.940756 0.08157,7.614178 0.162133,15.227058 0.241699,22.839088 -0.565727,1.47368 -1.132432,2.9463 -1.700149,4.41796 -25.149482,2.27544 -50.298959,4.54979 -75.4499391,6.82318 -1.7922682,-0.51479 -3.5854646,-1.03056 -5.3796968,-1.54734 -1.2184371,-4.81843 -2.4378251,-9.63766 -3.6582381,-14.458 2.113878,-5.8501 4.2266712,-11.70097 6.3385068,-17.552962 2.0821545,-2.350226 4.1632257,-4.701358 6.24333849,-7.053537 z" />
  </g>
  <g
     inkscape:label="레이어 1"
     inkscape:groupmode="layer"
     id="layer1" />
</svg>
